<svg width="53" height="123" viewBox="0 0 53 123" fill="none" xmlns="http://www.w3.org/2000/svg">
<path d="M41.4999 121.5C29.5 117.5 0.820965 99.8614 0.999854 65C1.17484 30.8994 24 15 50.5 5" stroke="#FFE30D" stroke-width="2" stroke-linecap="round" stroke-dasharray="18 18"/>
<path fill-rule="evenodd" clip-rule="evenodd" d="M45.9253 0.889563C45.4528 0.695187 44.9121 0.920691 44.7177 1.39324C44.5234 1.86579 44.7489 2.40644 45.2214 2.60082L50.5921 4.80998L48.3871 10.1705C48.1928 10.6431 48.4183 11.1837 48.8908 11.3781C49.3634 11.5725 49.904 11.347 50.0984 10.8744L52.6451 4.68322C52.6487 4.67502 52.6523 4.66675 52.6557 4.65839C52.6605 4.64671 52.665 4.63498 52.6693 4.62321C52.8462 4.15663 52.6204 3.6312 52.156 3.44018C52.1102 3.42138 52.0639 3.4065 52.0173 3.3954L45.9253 0.889563Z" fill="#FFE30D"/>
</svg>
